<svg width="270" height="87" viewBox="0 0 270 87" fill="none" xmlns="http://www.w3.org/2000/svg">
<g filter="url(#filter0_d_39_278)">
<rect x="4" width="261.497" height="79" rx="25" fill="#0077B6"/>
</g>
<path d="M63.352 46.664C63.352 48.008 63.0213 49.1813 62.36 50.184C61.6987 51.1867 60.7387 51.9653 59.48 52.52C58.2427 53.0533 56.728 53.32 54.936 53.32C54.1467 53.32 53.368 53.2667 52.6 53.16C51.8533 53.0533 51.128 52.904 50.424 52.712C49.7413 52.4987 49.0907 52.2427 48.472 51.944V47.432C49.56 47.9013 50.68 48.3387 51.832 48.744C53.0053 49.128 54.168 49.32 55.32 49.32C56.1093 49.32 56.7387 49.2133 57.208 49C57.6987 48.7867 58.0507 48.4987 58.264 48.136C58.4987 47.7733 58.616 47.3573 58.616 46.888C58.616 46.312 58.4133 45.8213 58.008 45.416C57.624 45.0107 57.1013 44.6373 56.44 44.296C55.7787 43.9333 55.0213 43.5493 54.168 43.144C53.6347 42.888 53.0587 42.5893 52.44 42.248C51.8213 41.8853 51.224 41.448 50.648 40.936C50.0933 40.4027 49.6347 39.7627 49.272 39.016C48.9093 38.2693 48.728 37.3733 48.728 36.328C48.728 34.9627 49.0373 33.8 49.656 32.84C50.296 31.8587 51.192 31.112 52.344 30.6C53.5173 30.088 54.8933 29.832 56.472 29.832C57.6667 29.832 58.7973 29.9707 59.864 30.248C60.952 30.5253 62.0827 30.92 63.256 31.432L61.688 35.208C60.6427 34.7813 59.704 34.4507 58.872 34.216C58.04 33.9813 57.1867 33.864 56.312 33.864C55.7147 33.864 55.2027 33.96 54.776 34.152C54.3493 34.344 54.0187 34.6107 53.784 34.952C53.5707 35.2933 53.464 35.6987 53.464 36.168C53.464 36.7013 53.624 37.16 53.944 37.544C54.264 37.9067 54.744 38.2587 55.384 38.6C56.024 38.9413 56.824 39.3467 57.784 39.816C58.9573 40.3707 59.9493 40.9467 60.76 41.544C61.592 42.1413 62.232 42.8453 62.68 43.656C63.128 44.4667 63.352 45.4693 63.352 46.664ZM83.153 35.528V53H79.505L78.865 50.76H78.609C78.2463 51.3573 77.777 51.848 77.201 52.232C76.6463 52.5947 76.0277 52.8613 75.345 53.032C74.6623 53.224 73.9583 53.32 73.233 53.32C71.9957 53.32 70.9077 53.096 69.969 52.648C69.0303 52.2 68.305 51.5067 67.793 50.568C67.281 49.6293 67.025 48.4133 67.025 46.92V35.528H71.793V45.736C71.793 46.9733 72.017 47.912 72.465 48.552C72.913 49.192 73.6277 49.512 74.609 49.512C75.5903 49.512 76.3477 49.288 76.881 48.84C77.4357 48.392 77.8197 47.7413 78.033 46.888C78.2677 46.0347 78.385 44.9893 78.385 43.752V35.528H83.153ZM92.9203 34.344C92.9203 35.0053 92.8989 35.656 92.8563 36.296C92.8136 36.936 92.7709 37.4373 92.7283 37.8H92.9203C93.3896 37.0747 94.0189 36.4667 94.8083 35.976C95.5976 35.464 96.6216 35.208 97.8803 35.208C99.8429 35.208 101.432 35.976 102.648 37.512C103.864 39.0267 104.472 41.2667 104.472 44.232C104.472 46.216 104.184 47.8907 103.608 49.256C103.054 50.6 102.275 51.6133 101.272 52.296C100.27 52.9787 99.0963 53.32 97.7523 53.32C96.4723 53.32 95.4589 53.096 94.7123 52.648C93.9869 52.1787 93.3896 51.656 92.9203 51.08H92.6003L91.8003 53H88.1523V28.68H92.9203V34.344ZM96.3443 39.016C95.5123 39.016 94.8509 39.1867 94.3603 39.528C93.8696 39.8693 93.5069 40.392 93.2723 41.096C93.0589 41.7787 92.9416 42.6427 92.9203 43.688V44.2C92.9203 45.8853 93.1656 47.1867 93.6562 48.104C94.1683 49 95.0856 49.448 96.4083 49.448C97.3896 49.448 98.1683 49 98.7443 48.104C99.3203 47.1867 99.6083 45.8747 99.6083 44.168C99.6083 42.4613 99.3096 41.1813 98.7123 40.328C98.1363 39.4533 97.3469 39.016 96.3443 39.016ZM128.914 35.208C130.898 35.208 132.392 35.72 133.394 36.744C134.418 37.7467 134.93 39.368 134.93 41.608V53H130.162V42.792C130.162 41.5333 129.949 40.5947 129.522 39.976C129.096 39.336 128.434 39.016 127.538 39.016C126.28 39.016 125.384 39.464 124.85 40.36C124.317 41.256 124.05 42.5467 124.05 44.232V53H119.282V42.792C119.282 41.96 119.186 41.2667 118.994 40.712C118.802 40.1573 118.514 39.7413 118.13 39.464C117.746 39.1653 117.256 39.016 116.658 39.016C115.784 39.016 115.09 39.24 114.578 39.688C114.066 40.136 113.704 40.7867 113.49 41.64C113.277 42.4933 113.17 43.5387 113.17 44.776V53H108.402V35.528H112.05L112.69 37.768H112.946C113.309 37.1707 113.757 36.6907 114.29 36.328C114.824 35.944 115.41 35.6667 116.05 35.496C116.712 35.304 117.373 35.208 118.034 35.208C119.314 35.208 120.402 35.4213 121.298 35.848C122.194 36.2533 122.877 36.8933 123.346 37.768H123.762C124.296 36.872 125.032 36.2213 125.97 35.816C126.93 35.4107 127.912 35.208 128.914 35.208ZM144.608 35.528V53H139.84V35.528H144.608ZM142.24 28.68C142.944 28.68 143.552 28.8507 144.064 29.192C144.576 29.512 144.832 30.12 144.832 31.016C144.832 31.8907 144.576 32.4987 144.064 32.84C143.552 33.1813 142.944 33.352 142.24 33.352C141.514 33.352 140.896 33.1813 140.384 32.84C139.893 32.4987 139.648 31.8907 139.648 31.016C139.648 30.12 139.893 29.512 140.384 29.192C140.896 28.8507 141.514 28.68 142.24 28.68ZM156.95 49.512C157.483 49.512 157.995 49.4587 158.486 49.352C158.976 49.2453 159.467 49.1173 159.958 48.968V52.52C159.446 52.7333 158.806 52.9147 158.038 53.064C157.291 53.2347 156.47 53.32 155.574 53.32C154.528 53.32 153.59 53.1493 152.758 52.808C151.947 52.4667 151.296 51.88 150.806 51.048C150.336 50.1947 150.102 49.0213 150.102 47.528V39.112H147.83V37.096L150.454 35.496L151.83 31.816H154.87V35.528H159.766V39.112H154.87V47.528C154.87 48.1893 155.062 48.6907 155.446 49.032C155.83 49.352 156.331 49.512 156.95 49.512Z" fill="#CAF0F8"/>
<path d="M219.466 30.6125C219.466 26.5391 215.975 23.2062 211.708 23.2062H186.882C182.615 23.2062 179.124 26.5391 179.124 30.6125C179.124 34.6859 182.615 38.0187 186.882 38.0187H211.708C215.975 38.0187 219.466 34.6859 219.466 30.6125ZM182.227 30.6125C182.227 28.1684 184.322 26.1687 186.882 26.1687H211.708C214.268 26.1687 216.362 28.1684 216.362 30.6125C216.362 33.0566 214.268 35.0562 211.708 35.0562H186.882C184.322 35.0562 182.227 33.0566 182.227 30.6125Z" fill="#FFDA48"/>
<path d="M200.071 29.1312H193.089C192.235 29.1312 191.537 29.7978 191.537 30.6125C191.537 31.4272 192.235 32.0937 193.089 32.0937H200.071C200.924 32.0937 201.622 31.4272 201.622 30.6125C201.622 29.7978 200.924 29.1312 200.071 29.1312ZM207.674 30.02C207.674 29.9459 207.596 29.8719 207.518 29.7978C207.441 29.7237 207.363 29.6497 207.363 29.5756C207.286 29.5015 207.208 29.4275 207.131 29.4275C207.053 29.3534 206.975 29.3534 206.898 29.2794C206.82 29.2053 206.743 29.2053 206.587 29.2053C206.122 29.1312 205.579 29.2794 205.191 29.5756C205.113 29.6497 205.036 29.7237 205.036 29.7978C204.958 29.8719 204.958 29.9459 204.881 30.02C204.881 30.094 204.803 30.1681 204.803 30.3162C204.803 30.3903 204.803 30.5384 204.803 30.6125C204.803 30.9828 204.958 31.3531 205.269 31.6494C205.501 31.9456 205.889 32.0937 206.277 32.0937C206.665 32.0937 207.053 31.9456 207.363 31.6494C207.674 31.3531 207.829 30.9828 207.829 30.6125C207.829 30.5384 207.829 30.3903 207.829 30.3162C207.751 30.2422 207.751 30.094 207.674 30.02ZM189.985 49.8687C189.985 54.7569 194.175 58.7562 199.295 58.7562C204.415 58.7562 208.605 54.7569 208.605 49.8687C208.605 44.9806 204.415 40.9812 199.295 40.9812C194.175 40.9812 189.985 44.9806 189.985 49.8687ZM199.76 46.2397C199.838 46.2397 199.838 46.2397 199.916 46.3137C199.993 46.3137 199.993 46.3878 200.071 46.3878C200.071 46.3878 200.148 46.3878 200.148 46.4619C200.226 46.5359 200.304 46.61 200.381 46.684L202.708 48.9059C203.329 49.4984 203.329 50.3872 202.708 50.9797C202.398 51.2019 202.01 51.35 201.622 51.35C201.39 51.35 201.079 51.2759 200.847 51.1278V52.1647C200.847 52.9794 200.148 53.6459 199.295 53.6459C198.442 53.6459 197.743 52.9794 197.743 52.1647V51.1278C197.123 51.424 196.347 51.35 195.881 50.9056C195.261 50.3131 195.261 49.4244 195.881 48.8319L198.209 46.61C198.286 46.5359 198.364 46.4619 198.442 46.3878L198.519 46.3137C198.597 46.3137 198.597 46.2397 198.674 46.2397C198.752 46.2397 198.752 46.2397 198.829 46.1656C198.907 46.1656 198.907 46.1656 198.985 46.0915C199.217 46.0175 199.373 46.0175 199.605 46.0915C199.683 46.2397 199.683 46.2397 199.76 46.2397Z" fill="#FFDA48"/>
<defs>
<filter id="filter0_d_39_278" x="0" y="0" width="269.497" height="87" filterUnits="userSpaceOnUse" color-interpolation-filters="sRGB">
<feFlood flood-opacity="0" result="BackgroundImageFix"/>
<feColorMatrix in="SourceAlpha" type="matrix" values="0 0 0 0 0 0 0 0 0 0 0 0 0 0 0 0 0 0 127 0" result="hardAlpha"/>
<feOffset dy="4"/>
<feGaussianBlur stdDeviation="2"/>
<feComposite in2="hardAlpha" operator="out"/>
<feColorMatrix type="matrix" values="0 0 0 0 0 0 0 0 0 0 0 0 0 0 0 0 0 0 0.25 0"/>
<feBlend mode="normal" in2="BackgroundImageFix" result="effect1_dropShadow_39_278"/>
<feBlend mode="normal" in="SourceGraphic" in2="effect1_dropShadow_39_278" result="shape"/>
</filter>
</defs>
</svg>
