<svg width="333" height="99" viewBox="0 0 333 99" fill="none" xmlns="http://www.w3.org/2000/svg">
<g filter="url(#filter0_d_33_73)">
<rect x="4" width="325" height="91" rx="25" fill="#0077B6"/>
</g>
<path d="M49.616 45.9107C49.616 47.6174 49.4133 49.1747 49.008 50.5827C48.6027 51.9907 47.984 53.2174 47.152 54.2627C46.32 55.2867 45.264 56.0867 43.984 56.6627L49.488 62.8067H43.28L39.088 57.6867C39.024 57.6867 38.96 57.6867 38.896 57.6867C38.8533 57.6867 38.8 57.6867 38.736 57.6867C36.88 57.6867 35.2587 57.4094 33.872 56.8547C32.5067 56.2787 31.376 55.4787 30.48 54.4547C29.6053 53.4094 28.944 52.1614 28.496 50.7107C28.0693 49.26 27.856 47.6494 27.856 45.8787C27.856 43.5107 28.24 41.452 29.008 39.7027C29.7973 37.9534 30.992 36.5987 32.592 35.6387C34.2133 34.6574 36.272 34.1667 38.768 34.1667C41.2427 34.1667 43.28 34.6574 44.88 35.6387C46.48 36.5987 47.664 37.964 48.432 39.7347C49.2213 41.484 49.616 43.5427 49.616 45.9107ZM32.944 45.9107C32.944 47.5107 33.1467 48.8867 33.552 50.0387C33.9573 51.1907 34.5867 52.076 35.44 52.6947C36.2933 53.3134 37.392 53.6227 38.736 53.6227C40.1227 53.6227 41.232 53.3134 42.064 52.6947C42.9173 52.076 43.536 51.1907 43.92 50.0387C44.3253 48.8867 44.528 47.5107 44.528 45.9107C44.528 43.5 44.08 41.612 43.184 40.2467C42.288 38.8814 40.816 38.1987 38.768 38.1987C37.4027 38.1987 36.2933 38.508 35.44 39.1267C34.5867 39.7454 33.9573 40.6307 33.552 41.7827C33.1467 42.9347 32.944 44.3107 32.944 45.9107ZM69.9968 39.8947V57.3667H66.3488L65.7088 55.1267H65.4528C65.0901 55.724 64.6208 56.2147 64.0448 56.5987C63.4901 56.9614 62.8714 57.228 62.1888 57.3987C61.5061 57.5907 60.8021 57.6867 60.0768 57.6867C58.8394 57.6867 57.7514 57.4627 56.8128 57.0147C55.8741 56.5667 55.1488 55.8734 54.6368 54.9347C54.1248 53.996 53.8688 52.78 53.8688 51.2867V39.8947H58.6368V50.1027C58.6368 51.34 58.8608 52.2787 59.3088 52.9187C59.7568 53.5587 60.4714 53.8787 61.4528 53.8787C62.4341 53.8787 63.1914 53.6547 63.7248 53.2067C64.2794 52.7587 64.6634 52.108 64.8768 51.2547C65.1114 50.4014 65.2288 49.356 65.2288 48.1187V39.8947H69.9968ZM79.764 39.8947V57.3667H74.996V39.8947H79.764ZM77.396 33.0467C78.1 33.0467 78.708 33.2174 79.22 33.5587C79.732 33.8787 79.988 34.4867 79.988 35.3827C79.988 36.2574 79.732 36.8654 79.22 37.2067C78.708 37.548 78.1 37.7187 77.396 37.7187C76.6707 37.7187 76.052 37.548 75.54 37.2067C75.0493 36.8654 74.804 36.2574 74.804 35.3827C74.804 34.4867 75.0493 33.8787 75.54 33.5587C76.052 33.2174 76.6707 33.0467 77.396 33.0467ZM96.906 57.3667H83.114V54.5507L91.21 43.5427H83.594V39.8947H96.618V42.9987L88.746 53.7187H96.906V57.3667ZM114.348 39.5747C115.414 39.5747 116.374 39.788 117.228 40.2147C118.081 40.6414 118.806 41.2814 119.404 42.1347H119.532L119.916 39.8947H123.948V57.3987C123.948 59.0627 123.617 60.46 122.956 61.5907C122.316 62.7214 121.345 63.5747 120.044 64.1507C118.742 64.748 117.132 65.0467 115.212 65.0467C113.974 65.0467 112.822 64.972 111.756 64.8227C110.71 64.6734 109.686 64.4067 108.684 64.0227V60.2147C109.409 60.5134 110.134 60.7587 110.86 60.9507C111.606 61.164 112.364 61.3134 113.132 61.3987C113.921 61.5054 114.71 61.5587 115.5 61.5587C116.737 61.5587 117.654 61.228 118.252 60.5667C118.87 59.9054 119.18 58.9134 119.18 57.5907V57.2387C119.18 56.876 119.19 56.5027 119.212 56.1187C119.254 55.7347 119.286 55.3934 119.308 55.0947H119.18C118.582 56.012 117.868 56.6734 117.036 57.0787C116.204 57.484 115.265 57.6867 114.22 57.6867C112.15 57.6867 110.529 56.8974 109.356 55.3187C108.204 53.7187 107.628 51.5 107.628 48.6627C107.628 46.7427 107.894 45.1107 108.428 43.7667C108.961 42.4014 109.729 41.3667 110.732 40.6627C111.756 39.9374 112.961 39.5747 114.348 39.5747ZM115.852 43.4467C115.105 43.4467 114.476 43.6494 113.964 44.0547C113.473 44.4387 113.1 45.0254 112.844 45.8147C112.609 46.5827 112.492 47.5534 112.492 48.7267C112.492 50.476 112.769 51.788 113.324 52.6627C113.878 53.516 114.742 53.9427 115.916 53.9427C116.534 53.9427 117.068 53.868 117.516 53.7187C117.964 53.548 118.326 53.2814 118.604 52.9187C118.902 52.5347 119.126 52.044 119.276 51.4467C119.425 50.8494 119.5 50.124 119.5 49.2707V48.6947C119.5 47.436 119.372 46.4227 119.116 45.6547C118.86 44.8867 118.465 44.332 117.932 43.9907C117.398 43.628 116.705 43.4467 115.852 43.4467ZM136.134 39.5747C137.755 39.5747 139.142 39.884 140.294 40.5027C141.467 41.1214 142.374 42.0174 143.014 43.1907C143.654 44.364 143.974 45.804 143.974 47.5107V49.8147H132.71C132.752 51.1587 133.147 52.2147 133.894 52.9827C134.662 53.7507 135.718 54.1347 137.062 54.1347C138.192 54.1347 139.216 54.028 140.134 53.8147C141.051 53.58 142 53.228 142.982 52.7587V56.4387C142.128 56.8654 141.222 57.1747 140.262 57.3667C139.323 57.58 138.182 57.6867 136.838 57.6867C135.088 57.6867 133.542 57.3667 132.198 56.7267C130.854 56.0654 129.798 55.0734 129.03 53.7507C128.262 52.428 127.878 50.764 127.878 48.7587C127.878 46.7107 128.219 45.0147 128.902 43.6707C129.606 42.3054 130.576 41.2814 131.814 40.5987C133.051 39.916 134.491 39.5747 136.134 39.5747ZM136.166 42.9667C135.248 42.9667 134.48 43.2654 133.862 43.8627C133.264 44.46 132.912 45.388 132.806 46.6467H139.494C139.494 45.9427 139.366 45.3134 139.11 44.7587C138.875 44.204 138.512 43.7667 138.022 43.4467C137.531 43.1267 136.912 42.9667 136.166 42.9667ZM157.76 39.5747C159.637 39.5747 161.141 40.0867 162.272 41.1107C163.402 42.1134 163.968 43.7347 163.968 45.9747V57.3667H159.2V47.1587C159.2 45.9 158.976 44.9614 158.528 44.3427C158.08 43.7027 157.365 43.3827 156.384 43.3827C154.933 43.3827 153.941 43.884 153.408 44.8867C152.874 45.868 152.608 47.2867 152.608 49.1427V57.3667H147.84V39.8947H151.488L152.128 42.1347H152.384C152.768 41.5374 153.237 41.0574 153.792 40.6947C154.346 40.3107 154.965 40.0334 155.648 39.8627C156.33 39.6707 157.034 39.5747 157.76 39.5747ZM176.071 39.5747C177.692 39.5747 179.079 39.884 180.231 40.5027C181.404 41.1214 182.311 42.0174 182.951 43.1907C183.591 44.364 183.911 45.804 183.911 47.5107V49.8147H172.647C172.69 51.1587 173.084 52.2147 173.831 52.9827C174.599 53.7507 175.655 54.1347 176.999 54.1347C178.13 54.1347 179.154 54.028 180.071 53.8147C180.988 53.58 181.938 53.228 182.919 52.7587V56.4387C182.066 56.8654 181.159 57.1747 180.199 57.3667C179.26 57.58 178.119 57.6867 176.775 57.6867C175.026 57.6867 173.479 57.3667 172.135 56.7267C170.791 56.0654 169.735 55.0734 168.967 53.7507C168.199 52.428 167.815 50.764 167.815 48.7587C167.815 46.7107 168.156 45.0147 168.839 43.6707C169.543 42.3054 170.514 41.2814 171.751 40.5987C172.988 39.916 174.428 39.5747 176.071 39.5747ZM176.103 42.9667C175.186 42.9667 174.418 43.2654 173.799 43.8627C173.202 44.46 172.85 45.388 172.743 46.6467H179.431C179.431 45.9427 179.303 45.3134 179.047 44.7587C178.812 44.204 178.45 43.7667 177.959 43.4467C177.468 43.1267 176.85 42.9667 176.103 42.9667ZM197.537 39.5747C197.772 39.5747 198.049 39.5854 198.369 39.6067C198.689 39.628 198.945 39.66 199.137 39.7027L198.785 44.1827C198.636 44.14 198.412 44.108 198.113 44.0867C197.836 44.044 197.591 44.0227 197.377 44.0227C196.759 44.0227 196.161 44.108 195.585 44.2787C195.009 44.428 194.487 44.6734 194.017 45.0147C193.569 45.356 193.207 45.8147 192.929 46.3907C192.673 46.9454 192.545 47.6387 192.545 48.4707V57.3667H187.777V39.8947H191.393L192.097 42.8387H192.321C192.663 42.2414 193.089 41.6974 193.601 41.2067C194.113 40.716 194.7 40.3214 195.361 40.0227C196.044 39.724 196.769 39.5747 197.537 39.5747ZM208.852 39.5427C211.198 39.5427 212.99 40.0547 214.228 41.0787C215.486 42.0814 216.116 43.628 216.116 45.7187V57.3667H212.788L211.86 54.9987H211.732C211.241 55.6174 210.729 56.1294 210.196 56.5347C209.684 56.94 209.086 57.228 208.404 57.3987C207.742 57.5907 206.921 57.6867 205.94 57.6867C204.916 57.6867 203.988 57.4947 203.156 57.1107C202.345 56.7054 201.705 56.0974 201.236 55.2867C200.766 54.4547 200.532 53.4094 200.532 52.1507C200.532 50.2947 201.182 48.9294 202.484 48.0547C203.785 47.1587 205.737 46.668 208.34 46.5827L211.38 46.4867V45.7187C211.38 44.8014 211.134 44.1294 210.644 43.7027C210.174 43.276 209.513 43.0627 208.66 43.0627C207.806 43.0627 206.974 43.1907 206.164 43.4467C205.353 43.6814 204.542 43.98 203.732 44.3427L202.164 41.1107C203.102 40.62 204.137 40.236 205.268 39.9587C206.42 39.6814 207.614 39.5427 208.852 39.5427ZM209.524 49.3347C207.988 49.3774 206.921 49.6547 206.324 50.1667C205.726 50.6787 205.428 51.3507 205.428 52.1827C205.428 52.908 205.641 53.4307 206.068 53.7507C206.494 54.0494 207.049 54.1987 207.732 54.1987C208.756 54.1987 209.62 53.9 210.324 53.3027C211.028 52.684 211.38 51.82 211.38 50.7107V49.2707L209.524 49.3347ZM228.356 53.8787C228.889 53.8787 229.401 53.8254 229.892 53.7187C230.383 53.612 230.873 53.484 231.364 53.3347V56.8867C230.852 57.1 230.212 57.2814 229.444 57.4307C228.697 57.6014 227.876 57.6867 226.98 57.6867C225.935 57.6867 224.996 57.516 224.164 57.1747C223.353 56.8334 222.703 56.2467 222.212 55.4147C221.743 54.5614 221.508 53.388 221.508 51.8947V43.4787H219.236V41.4627L221.86 39.8627L223.236 36.1827H226.276V39.8947H231.172V43.4787H226.276V51.8947C226.276 52.556 226.468 53.0574 226.852 53.3987C227.236 53.7187 227.737 53.8787 228.356 53.8787ZM250.743 48.5987C250.743 50.0494 250.54 51.34 250.135 52.4707C249.751 53.6014 249.186 54.5614 248.439 55.3507C247.714 56.1187 246.828 56.7054 245.783 57.1107C244.738 57.4947 243.554 57.6867 242.231 57.6867C241.015 57.6867 239.884 57.4947 238.839 57.1107C237.815 56.7054 236.93 56.1187 236.183 55.3507C235.436 54.5614 234.85 53.6014 234.423 52.4707C234.018 51.34 233.815 50.0494 233.815 48.5987C233.815 46.6574 234.156 45.0254 234.839 43.7027C235.522 42.3587 236.503 41.3347 237.783 40.6307C239.063 39.9267 240.578 39.5747 242.327 39.5747C243.97 39.5747 245.42 39.9267 246.679 40.6307C247.938 41.3347 248.93 42.3587 249.655 43.7027C250.38 45.0254 250.743 46.6574 250.743 48.5987ZM238.679 48.5987C238.679 49.7507 238.796 50.7214 239.031 51.5107C239.287 52.2787 239.682 52.8654 240.215 53.2707C240.748 53.6547 241.442 53.8467 242.295 53.8467C243.148 53.8467 243.831 53.6547 244.343 53.2707C244.876 52.8654 245.26 52.2787 245.495 51.5107C245.751 50.7214 245.879 49.7507 245.879 48.5987C245.879 47.4467 245.751 46.4867 245.495 45.7187C245.26 44.9507 244.876 44.3747 244.343 43.9907C243.81 43.6067 243.116 43.4147 242.263 43.4147C241.004 43.4147 240.087 43.852 239.511 44.7267C238.956 45.58 238.679 46.8707 238.679 48.5987ZM264.444 39.5747C264.678 39.5747 264.956 39.5854 265.276 39.6067C265.596 39.628 265.852 39.66 266.044 39.7027L265.692 44.1827C265.542 44.14 265.318 44.108 265.02 44.0867C264.742 44.044 264.497 44.0227 264.284 44.0227C263.665 44.0227 263.068 44.108 262.492 44.2787C261.916 44.428 261.393 44.6734 260.924 45.0147C260.476 45.356 260.113 45.8147 259.836 46.3907C259.58 46.9454 259.452 47.6387 259.452 48.4707V57.3667H254.684V39.8947H258.3L259.004 42.8387H259.228C259.569 42.2414 259.996 41.6974 260.508 41.2067C261.02 40.716 261.606 40.3214 262.268 40.0227C262.95 39.724 263.676 39.5747 264.444 39.5747Z" fill="#CAF0F8"/>
<path d="M279.102 71.7888C278.891 71.7888 278.678 71.7342 278.492 71.6231C278.068 71.3705 277.893 70.8914 278.066 70.4631L287.831 46.368H279.103C278.648 46.368 278.239 46.1173 278.075 45.7368C277.91 45.3564 278.023 44.9245 278.36 44.6495L309.155 19.4692C309.53 19.1624 310.09 19.125 310.512 19.3789C310.934 19.6328 311.107 20.1121 310.933 20.5397L301.174 44.3914H309.897C310.352 44.3914 310.759 44.641 310.924 45.0203C311.09 45.3996 310.978 45.8309 310.644 46.1067L279.849 71.5275C279.64 71.7004 279.372 71.7888 279.102 71.7888ZM281.947 44.3914H289.405C289.764 44.3914 290.101 44.5486 290.307 44.8126C290.514 45.0766 290.564 45.4142 290.441 45.7171L281.683 67.3266L307.073 46.368H299.596C299.235 46.368 298.898 46.2103 298.692 45.9456C298.486 45.6808 298.437 45.3425 298.561 45.0394L307.311 23.6524L281.947 44.3914Z" fill="#FFDA48" stroke="#E4C64E"/>
<defs>
<filter id="filter0_d_33_73" x="0" y="0" width="333" height="99" filterUnits="userSpaceOnUse" color-interpolation-filters="sRGB">
<feFlood flood-opacity="0" result="BackgroundImageFix"/>
<feColorMatrix in="SourceAlpha" type="matrix" values="0 0 0 0 0 0 0 0 0 0 0 0 0 0 0 0 0 0 127 0" result="hardAlpha"/>
<feOffset dy="4"/>
<feGaussianBlur stdDeviation="2"/>
<feComposite in2="hardAlpha" operator="out"/>
<feColorMatrix type="matrix" values="0 0 0 0 0 0 0 0 0 0 0 0 0 0 0 0 0 0 0.25 0"/>
<feBlend mode="normal" in2="BackgroundImageFix" result="effect1_dropShadow_33_73"/>
<feBlend mode="normal" in="SourceGraphic" in2="effect1_dropShadow_33_73" result="shape"/>
</filter>
</defs>
</svg>
