<svg width="339" height="98" viewBox="0 0 339 98" fill="none" xmlns="http://www.w3.org/2000/svg">
<g filter="url(#filter0_d_0_1)">
<rect x="4.16815" width="330.787" height="90" rx="25" fill="#0077B6"/>
</g>
<path d="M77.741 45.544C77.741 47.2507 77.5383 48.808 77.133 50.216C76.7277 51.624 76.109 52.8507 75.277 53.896C74.445 54.92 73.389 55.72 72.109 56.296L77.613 62.44H71.405L67.213 57.32C67.149 57.32 67.085 57.32 67.021 57.32C66.9783 57.32 66.925 57.32 66.861 57.32C65.005 57.32 63.3837 57.0427 61.997 56.488C60.6317 55.912 59.501 55.112 58.605 54.088C57.7303 53.0427 57.069 51.7947 56.621 50.344C56.1943 48.8933 55.981 47.2827 55.981 45.512C55.981 43.144 56.365 41.0853 57.133 39.336C57.9223 37.5867 59.117 36.232 60.717 35.272C62.3383 34.2907 64.397 33.8 66.893 33.8C69.3677 33.8 71.405 34.2907 73.005 35.272C74.605 36.232 75.789 37.5973 76.557 39.368C77.3463 41.1173 77.741 43.176 77.741 45.544ZM61.069 45.544C61.069 47.144 61.2717 48.52 61.677 49.672C62.0823 50.824 62.7117 51.7093 63.565 52.328C64.4183 52.9467 65.517 53.256 66.861 53.256C68.2477 53.256 69.357 52.9467 70.189 52.328C71.0423 51.7093 71.661 50.824 72.045 49.672C72.4503 48.52 72.653 47.144 72.653 45.544C72.653 43.1333 72.205 41.2453 71.309 39.88C70.413 38.5147 68.941 37.832 66.893 37.832C65.5277 37.832 64.4183 38.1413 63.565 38.76C62.7117 39.3787 62.0823 40.264 61.677 41.416C61.2717 42.568 61.069 43.944 61.069 45.544ZM98.1218 39.528V57H94.4738L93.8338 54.76H93.5778C93.2151 55.3573 92.7458 55.848 92.1698 56.232C91.6151 56.5947 90.9964 56.8613 90.3138 57.032C89.6311 57.224 88.9271 57.32 88.2018 57.32C86.9644 57.32 85.8764 57.096 84.9378 56.648C83.9991 56.2 83.2738 55.5067 82.7618 54.568C82.2498 53.6293 81.9938 52.4133 81.9938 50.92V39.528H86.7618V49.736C86.7618 50.9733 86.9858 51.912 87.4338 52.552C87.8818 53.192 88.5964 53.512 89.5778 53.512C90.5591 53.512 91.3164 53.288 91.8498 52.84C92.4044 52.392 92.7884 51.7413 93.0018 50.888C93.2364 50.0347 93.3538 48.9893 93.3538 47.752V39.528H98.1218ZM107.889 39.528V57H103.121V39.528H107.889ZM105.521 32.68C106.225 32.68 106.833 32.8507 107.345 33.192C107.857 33.512 108.113 34.12 108.113 35.016C108.113 35.8907 107.857 36.4987 107.345 36.84C106.833 37.1813 106.225 37.352 105.521 37.352C104.796 37.352 104.177 37.1813 103.665 36.84C103.174 36.4987 102.929 35.8907 102.929 35.016C102.929 34.12 103.174 33.512 103.665 33.192C104.177 32.8507 104.796 32.68 105.521 32.68ZM125.031 57H111.239V54.184L119.335 43.176H111.719V39.528H124.743V42.632L116.871 53.352H125.031V57ZM155.913 57H151.081V47.144H142.025V57H137.193V34.152H142.025V43.112H151.081V34.152H155.913V57ZM166.045 39.528V57H161.277V39.528H166.045ZM163.677 32.68C164.381 32.68 164.989 32.8507 165.501 33.192C166.013 33.512 166.269 34.12 166.269 35.016C166.269 35.8907 166.013 36.4987 165.501 36.84C164.989 37.1813 164.381 37.352 163.677 37.352C162.952 37.352 162.333 37.1813 161.821 36.84C161.331 36.4987 161.085 35.8907 161.085 35.016C161.085 34.12 161.331 33.512 161.821 33.192C162.333 32.8507 162.952 32.68 163.677 32.68ZM183.219 51.816C183.219 52.9893 182.942 53.992 182.387 54.824C181.833 55.6347 181.001 56.2533 179.891 56.68C178.782 57.1067 177.406 57.32 175.763 57.32C174.547 57.32 173.502 57.2347 172.627 57.064C171.753 56.9147 170.878 56.6587 170.003 56.296V52.36C170.942 52.7867 171.955 53.1387 173.043 53.416C174.131 53.6933 175.091 53.832 175.923 53.832C176.862 53.832 177.523 53.6933 177.907 53.416C178.313 53.1387 178.515 52.776 178.515 52.328C178.515 52.0293 178.43 51.7627 178.259 51.528C178.11 51.2933 177.769 51.0267 177.235 50.728C176.702 50.4293 175.87 50.0453 174.739 49.576C173.651 49.1067 172.755 48.648 172.051 48.2C171.347 47.7307 170.825 47.176 170.483 46.536C170.142 45.8747 169.971 45.0533 169.971 44.072C169.971 42.4507 170.601 41.2347 171.859 40.424C173.118 39.6133 174.793 39.208 176.883 39.208C177.971 39.208 179.006 39.3147 179.987 39.528C180.969 39.7413 181.982 40.0933 183.027 40.584L181.587 44.008C181.011 43.752 180.457 43.528 179.923 43.336C179.39 43.144 178.867 42.9947 178.355 42.888C177.865 42.7813 177.353 42.728 176.819 42.728C176.115 42.728 175.582 42.824 175.219 43.016C174.878 43.208 174.707 43.496 174.707 43.88C174.707 44.1573 174.793 44.4133 174.963 44.648C175.155 44.8613 175.507 45.096 176.019 45.352C176.553 45.608 177.331 45.9493 178.355 46.376C179.358 46.7813 180.222 47.208 180.947 47.656C181.673 48.0827 182.227 48.6267 182.611 49.288C183.017 49.928 183.219 50.7707 183.219 51.816ZM194.294 53.512C194.827 53.512 195.339 53.4587 195.83 53.352C196.32 53.2453 196.811 53.1173 197.302 52.968V56.52C196.79 56.7333 196.15 56.9147 195.382 57.064C194.635 57.2347 193.814 57.32 192.918 57.32C191.872 57.32 190.934 57.1493 190.102 56.808C189.291 56.4667 188.64 55.88 188.15 55.048C187.68 54.1947 187.446 53.0213 187.446 51.528V43.112H185.174V41.096L187.798 39.496L189.174 35.816H192.214V39.528H197.11V43.112H192.214V51.528C192.214 52.1893 192.406 52.6907 192.79 53.032C193.174 53.352 193.675 53.512 194.294 53.512ZM216.681 48.232C216.681 49.6827 216.478 50.9733 216.073 52.104C215.689 53.2347 215.123 54.1947 214.377 54.984C213.651 55.752 212.766 56.3387 211.721 56.744C210.675 57.128 209.491 57.32 208.169 57.32C206.953 57.32 205.822 57.128 204.777 56.744C203.753 56.3387 202.867 55.752 202.121 54.984C201.374 54.1947 200.787 53.2347 200.361 52.104C199.955 50.9733 199.753 49.6827 199.753 48.232C199.753 46.2907 200.094 44.6587 200.777 43.336C201.459 41.992 202.441 40.968 203.721 40.264C205.001 39.56 206.515 39.208 208.265 39.208C209.907 39.208 211.358 39.56 212.617 40.264C213.875 40.968 214.867 41.992 215.593 43.336C216.318 44.6587 216.681 46.2907 216.681 48.232ZM204.617 48.232C204.617 49.384 204.734 50.3547 204.969 51.144C205.225 51.912 205.619 52.4987 206.153 52.904C206.686 53.288 207.379 53.48 208.233 53.48C209.086 53.48 209.769 53.288 210.281 52.904C210.814 52.4987 211.198 51.912 211.433 51.144C211.689 50.3547 211.817 49.384 211.817 48.232C211.817 47.08 211.689 46.12 211.433 45.352C211.198 44.584 210.814 44.008 210.281 43.624C209.747 43.24 209.054 43.048 208.201 43.048C206.942 43.048 206.025 43.4853 205.449 44.36C204.894 45.2133 204.617 46.504 204.617 48.232ZM230.381 39.208C230.616 39.208 230.893 39.2187 231.213 39.24C231.533 39.2613 231.789 39.2933 231.981 39.336L231.629 43.816C231.48 43.7733 231.256 43.7413 230.957 43.72C230.68 43.6773 230.434 43.656 230.221 43.656C229.602 43.656 229.005 43.7413 228.429 43.912C227.853 44.0613 227.33 44.3067 226.861 44.648C226.413 44.9893 226.05 45.448 225.773 46.024C225.517 46.5787 225.389 47.272 225.389 48.104V57H220.621V39.528H224.237L224.941 42.472H225.165C225.506 41.8747 225.933 41.3307 226.445 40.84C226.957 40.3493 227.544 39.9547 228.205 39.656C228.888 39.3573 229.613 39.208 230.381 39.208ZM232.656 39.528H237.872L241.168 49.352C241.275 49.672 241.36 49.992 241.424 50.312C241.51 50.632 241.574 50.9627 241.616 51.304C241.68 51.6453 241.723 52.008 241.744 52.392H241.84C241.904 51.8373 241.99 51.3147 242.096 50.824C242.224 50.312 242.363 49.8213 242.512 49.352L245.744 39.528H250.864L243.472 59.24C243.024 60.4347 242.438 61.4373 241.712 62.248C241.008 63.0587 240.187 63.6667 239.248 64.072C238.31 64.4773 237.286 64.68 236.176 64.68C235.643 64.68 235.174 64.648 234.768 64.584C234.384 64.5413 234.043 64.488 233.744 64.424V60.648C233.979 60.6907 234.256 60.7333 234.576 60.776C234.918 60.8187 235.27 60.84 235.632 60.84C236.294 60.84 236.859 60.7013 237.328 60.424C237.819 60.1467 238.224 59.7627 238.544 59.272C238.864 58.8027 239.12 58.2907 239.312 57.736L239.6 56.872L232.656 39.528Z" fill="#CAF0F8"/>
<path d="M312.517 40.4833L302.517 30.4833C302.363 30.3334 302.182 30.2146 301.983 30.1333C301.777 30.0494 301.556 30.0042 301.333 30H288C286.674 30 285.402 30.5268 284.464 31.4645C283.527 32.4021 283 33.6739 283 35V55C283 56.3261 283.527 57.5979 284.464 58.5355C285.402 59.4732 286.674 60 288 60H308C309.326 60 310.598 59.4732 311.536 58.5355C312.473 57.5979 313 56.3261 313 55V41.6667C313.001 41.4473 312.959 41.2299 312.876 41.0268C312.793 40.8238 312.671 40.6391 312.517 40.4833ZM293 33.3333H299.667V36.6667H293V33.3333ZM303 56.6667H293V51.6667C293 51.2246 293.176 50.8007 293.488 50.4882C293.801 50.1756 294.225 50 294.667 50H301.333C301.775 50 302.199 50.1756 302.512 50.4882C302.824 50.8007 303 51.2246 303 51.6667V56.6667ZM309.667 55C309.667 55.442 309.491 55.866 309.178 56.1785C308.866 56.4911 308.442 56.6667 308 56.6667H306.333V51.6667C306.333 50.3406 305.807 49.0688 304.869 48.1311C303.931 47.1934 302.659 46.6667 301.333 46.6667H294.667C293.341 46.6667 292.069 47.1934 291.131 48.1311C290.193 49.0688 289.667 50.3406 289.667 51.6667V56.6667H288C287.558 56.6667 287.134 56.4911 286.821 56.1785C286.509 55.866 286.333 55.442 286.333 55V35C286.333 34.558 286.509 34.134 286.821 33.8215C287.134 33.5089 287.558 33.3333 288 33.3333H289.667V38.3333C289.667 38.7754 289.842 39.1993 290.155 39.5118C290.467 39.8244 290.891 40 291.333 40H301.333C301.775 40 302.199 39.8244 302.512 39.5118C302.824 39.1993 303 38.7754 303 38.3333V35.6833L309.667 42.35V55Z" fill="#E4C64E"/>
<defs>
<filter id="filter0_d_0_1" x="0.168152" y="0" width="338.787" height="98" filterUnits="userSpaceOnUse" color-interpolation-filters="sRGB">
<feFlood flood-opacity="0" result="BackgroundImageFix"/>
<feColorMatrix in="SourceAlpha" type="matrix" values="0 0 0 0 0 0 0 0 0 0 0 0 0 0 0 0 0 0 127 0" result="hardAlpha"/>
<feOffset dy="4"/>
<feGaussianBlur stdDeviation="2"/>
<feComposite in2="hardAlpha" operator="out"/>
<feColorMatrix type="matrix" values="0 0 0 0 0 0 0 0 0 0 0 0 0 0 0 0 0 0 0.25 0"/>
<feBlend mode="normal" in2="BackgroundImageFix" result="effect1_dropShadow_0_1"/>
<feBlend mode="normal" in="SourceGraphic" in2="effect1_dropShadow_0_1" result="shape"/>
</filter>
</defs>
</svg>
