<svg width="166" height="59" viewBox="0 0 166 59" fill="none" xmlns="http://www.w3.org/2000/svg">
<g filter="url(#filter0_d_192_3)">
<rect x="4" y="0.893616" width="158" height="50" rx="25" fill="#0077B6"/>
</g>
<path d="M56.5 33H53.48V26.84H47.82V33H44.8V18.72H47.82V24.32H53.48V18.72H56.5V33ZM69.773 27.52C69.773 28.4267 69.6463 29.2333 69.393 29.94C69.153 30.6467 68.7996 31.2467 68.333 31.74C67.8796 32.22 67.3263 32.5867 66.673 32.84C66.0196 33.08 65.2796 33.2 64.453 33.2C63.693 33.2 62.9863 33.08 62.333 32.84C61.693 32.5867 61.1396 32.22 60.673 31.74C60.2063 31.2467 59.8396 30.6467 59.573 29.94C59.3196 29.2333 59.193 28.4267 59.193 27.52C59.193 26.3067 59.4063 25.2867 59.833 24.46C60.2596 23.62 60.873 22.98 61.673 22.54C62.473 22.1 63.4196 21.88 64.513 21.88C65.5396 21.88 66.4463 22.1 67.233 22.54C68.0196 22.98 68.6396 23.62 69.093 24.46C69.5463 25.2867 69.773 26.3067 69.773 27.52ZM62.233 27.52C62.233 28.24 62.3063 28.8467 62.453 29.34C62.613 29.82 62.8596 30.1867 63.193 30.44C63.5263 30.68 63.9596 30.8 64.493 30.8C65.0263 30.8 65.453 30.68 65.773 30.44C66.1063 30.1867 66.3463 29.82 66.493 29.34C66.653 28.8467 66.733 28.24 66.733 27.52C66.733 26.8 66.653 26.2 66.493 25.72C66.3463 25.24 66.1063 24.88 65.773 24.64C65.4396 24.4 65.0063 24.28 64.473 24.28C63.6863 24.28 63.113 24.5533 62.753 25.1C62.4063 25.6333 62.233 26.44 62.233 27.52ZM85.0558 21.88C86.2958 21.88 87.2291 22.2 87.8558 22.84C88.4958 23.4667 88.8158 24.48 88.8158 25.88V33H85.8358V26.62C85.8358 25.8333 85.7024 25.2467 85.4358 24.86C85.1691 24.46 84.7558 24.26 84.1958 24.26C83.4091 24.26 82.8491 24.54 82.5158 25.1C82.1824 25.66 82.0158 26.4667 82.0158 27.52V33H79.0358V26.62C79.0358 26.1 78.9758 25.6667 78.8558 25.32C78.7358 24.9733 78.5558 24.7133 78.3158 24.54C78.0758 24.3533 77.7691 24.26 77.3958 24.26C76.8491 24.26 76.4158 24.4 76.0958 24.68C75.7758 24.96 75.5491 25.3667 75.4158 25.9C75.2824 26.4333 75.2158 27.0867 75.2158 27.86V33H72.2358V22.08H74.5158L74.9158 23.48H75.0758C75.3024 23.1067 75.5824 22.8067 75.9158 22.58C76.2491 22.34 76.6158 22.1667 77.0158 22.06C77.4291 21.94 77.8424 21.88 78.2558 21.88C79.0558 21.88 79.7358 22.0133 80.2958 22.28C80.8558 22.5333 81.2824 22.9333 81.5758 23.48H81.8358C82.1691 22.92 82.6291 22.5133 83.2158 22.26C83.8158 22.0067 84.4291 21.88 85.0558 21.88ZM96.3842 21.88C97.3976 21.88 98.2642 22.0733 98.9842 22.46C99.7176 22.8467 100.284 23.4067 100.684 24.14C101.084 24.8733 101.284 25.7733 101.284 26.84V28.28H94.2442C94.2709 29.12 94.5176 29.78 94.9842 30.26C95.4642 30.74 96.1242 30.98 96.9642 30.98C97.6709 30.98 98.3109 30.9133 98.8842 30.78C99.4576 30.6333 100.051 30.4133 100.664 30.12V32.42C100.131 32.6867 99.5642 32.88 98.9642 33C98.3776 33.1333 97.6642 33.2 96.8242 33.2C95.7309 33.2 94.7642 33 93.9242 32.6C93.0842 32.1867 92.4242 31.5667 91.9442 30.74C91.4642 29.9133 91.2242 28.8733 91.2242 27.62C91.2242 26.34 91.4376 25.28 91.8642 24.44C92.3042 23.5867 92.9109 22.9467 93.6842 22.52C94.4576 22.0933 95.3576 21.88 96.3842 21.88ZM96.4042 24C95.8309 24 95.3509 24.1867 94.9642 24.56C94.5909 24.9333 94.3709 25.5133 94.3042 26.3H98.4842C98.4842 25.86 98.4042 25.4667 98.2442 25.12C98.0976 24.7733 97.8709 24.5 97.5642 24.3C97.2576 24.1 96.8709 24 96.4042 24Z" fill="#CAF0F8"/>
<path d="M131 21.0239L125 15.7639C124.45 15.272 123.738 15 123 15C122.262 15 121.55 15.272 121 15.7639L115 21.0239C114.682 21.308 114.429 21.6565 114.257 22.0462C114.084 22.4359 113.997 22.8578 114 23.2839V32.0239C114 32.8196 114.316 33.5826 114.879 34.1453C115.441 34.7079 116.204 35.0239 117 35.0239H129C129.796 35.0239 130.559 34.7079 131.121 34.1453C131.684 33.5826 132 32.8196 132 32.0239V23.2739C132.002 22.8495 131.914 22.4295 131.742 22.0416C131.569 21.6538 131.316 21.3069 131 21.0239ZM125 33.0239H121V28.0239C121 27.7587 121.105 27.5044 121.293 27.3168C121.481 27.1293 121.735 27.0239 122 27.0239H124C124.265 27.0239 124.52 27.1293 124.707 27.3168C124.895 27.5044 125 27.7587 125 28.0239V33.0239ZM130 32.0239C130 32.2891 129.895 32.5435 129.707 32.731C129.52 32.9186 129.265 33.0239 129 33.0239H127V28.0239C127 27.2283 126.684 26.4652 126.121 25.9026C125.559 25.34 124.796 25.0239 124 25.0239H122C121.204 25.0239 120.441 25.34 119.879 25.9026C119.316 26.4652 119 27.2283 119 28.0239V33.0239H117C116.735 33.0239 116.481 32.9186 116.293 32.731C116.105 32.5435 116 32.2891 116 32.0239V23.2739C116 23.1319 116.031 22.9916 116.089 22.8623C116.148 22.733 116.233 22.6176 116.34 22.5239L122.34 17.2739C122.523 17.1136 122.757 17.0252 123 17.0252C123.243 17.0252 123.478 17.1136 123.66 17.2739L129.66 22.5239C129.767 22.6176 129.852 22.733 129.911 22.8623C129.97 22.9916 130 23.1319 130 23.2739V32.0239Z" fill="#FFDA48"/>
<defs>
<filter id="filter0_d_192_3" x="0" y="0.893616" width="166" height="58" filterUnits="userSpaceOnUse" color-interpolation-filters="sRGB">
<feFlood flood-opacity="0" result="BackgroundImageFix"/>
<feColorMatrix in="SourceAlpha" type="matrix" values="0 0 0 0 0 0 0 0 0 0 0 0 0 0 0 0 0 0 127 0" result="hardAlpha"/>
<feOffset dy="4"/>
<feGaussianBlur stdDeviation="2"/>
<feComposite in2="hardAlpha" operator="out"/>
<feColorMatrix type="matrix" values="0 0 0 0 0 0 0 0 0 0 0 0 0 0 0 0 0 0 0.25 0"/>
<feBlend mode="normal" in2="BackgroundImageFix" result="effect1_dropShadow_192_3"/>
<feBlend mode="normal" in="SourceGraphic" in2="effect1_dropShadow_192_3" result="shape"/>
</filter>
</defs>
</svg>
