<svg width="270" height="87" viewBox="0 0 270 87" fill="none" xmlns="http://www.w3.org/2000/svg">
<g filter="url(#filter0_d_0_1)">
<rect x="4" width="261.497" height="79" rx="25" fill="#0077B6"/>
</g>
<path d="M62.536 26.152C64.6053 26.152 66.312 26.408 67.656 26.92C69 27.4107 70.0027 28.168 70.664 29.192C71.3253 30.1947 71.656 31.464 71.656 33C71.656 34.0453 71.4533 34.9627 71.048 35.752C70.664 36.52 70.1413 37.1813 69.48 37.736C68.84 38.2693 68.1467 38.7067 67.4 39.048L74.12 49H68.744L63.304 40.232H60.712V49H55.88V26.152H62.536ZM62.184 30.12H60.712V36.296H62.28C63.3467 36.296 64.2107 36.1787 64.872 35.944C65.5333 35.7093 66.0133 35.3573 66.312 34.888C66.6107 34.3973 66.76 33.8107 66.76 33.128C66.76 32.4027 66.5893 31.8267 66.248 31.4C65.928 30.952 65.4267 30.632 64.744 30.44C64.0827 30.2267 63.2293 30.12 62.184 30.12ZM83.821 31.208C85.4423 31.208 86.829 31.5173 87.981 32.136C89.1543 32.7547 90.061 33.6507 90.701 34.824C91.341 35.9973 91.661 37.4373 91.661 39.144V41.448H80.397C80.4397 42.792 80.8343 43.848 81.581 44.616C82.349 45.384 83.405 45.768 84.749 45.768C85.8797 45.768 86.9037 45.6613 87.821 45.448C88.7383 45.2133 89.6877 44.8613 90.669 44.392V48.072C89.8157 48.4987 88.909 48.808 87.949 49C87.0103 49.2133 85.869 49.32 84.525 49.32C82.7757 49.32 81.229 49 79.885 48.36C78.541 47.6987 77.485 46.7067 76.717 45.384C75.949 44.0613 75.565 42.3973 75.565 40.392C75.565 38.344 75.9063 36.648 76.589 35.304C77.293 33.9387 78.2637 32.9147 79.501 32.232C80.7383 31.5493 82.1783 31.208 83.821 31.208ZM83.853 34.6C82.9357 34.6 82.1677 34.8987 81.549 35.496C80.9517 36.0933 80.5997 37.0213 80.493 38.28H87.181C87.181 37.576 87.053 36.9467 86.797 36.392C86.5623 35.8373 86.1997 35.4 85.709 35.08C85.2183 34.76 84.5997 34.6 83.853 34.6ZM99.0623 49L92.4062 31.528H97.3983L100.758 41.48C100.886 41.864 100.993 42.2693 101.078 42.696C101.185 43.1227 101.26 43.5387 101.302 43.944C101.366 44.3493 101.409 44.7227 101.43 45.064H101.558C101.58 44.7013 101.622 44.3173 101.686 43.912C101.75 43.5067 101.825 43.1013 101.91 42.696C102.017 42.2693 102.134 41.864 102.262 41.48L105.622 31.528H110.614L103.958 49H99.0623ZM117.889 31.528V49H113.121V31.528H117.889ZM115.521 24.68C116.225 24.68 116.833 24.8507 117.345 25.192C117.857 25.512 118.113 26.12 118.113 27.016C118.113 27.8907 117.857 28.4987 117.345 28.84C116.833 29.1813 116.225 29.352 115.521 29.352C114.796 29.352 114.177 29.1813 113.665 28.84C113.174 28.4987 112.929 27.8907 112.929 27.016C112.929 26.12 113.174 25.512 113.665 25.192C114.177 24.8507 114.796 24.68 115.521 24.68ZM130.071 31.208C131.692 31.208 133.079 31.5173 134.231 32.136C135.404 32.7547 136.311 33.6507 136.951 34.824C137.591 35.9973 137.911 37.4373 137.911 39.144V41.448H126.647C126.69 42.792 127.084 43.848 127.831 44.616C128.599 45.384 129.655 45.768 130.999 45.768C132.13 45.768 133.154 45.6613 134.071 45.448C134.988 45.2133 135.938 44.8613 136.919 44.392V48.072C136.066 48.4987 135.159 48.808 134.199 49C133.26 49.2133 132.119 49.32 130.775 49.32C129.026 49.32 127.479 49 126.135 48.36C124.791 47.6987 123.735 46.7067 122.967 45.384C122.199 44.0613 121.815 42.3973 121.815 40.392C121.815 38.344 122.156 36.648 122.839 35.304C123.543 33.9387 124.514 32.9147 125.751 32.232C126.988 31.5493 128.428 31.208 130.071 31.208ZM130.103 34.6C129.186 34.6 128.418 34.8987 127.799 35.496C127.202 36.0933 126.85 37.0213 126.743 38.28H133.431C133.431 37.576 133.303 36.9467 133.047 36.392C132.812 35.8373 132.45 35.4 131.959 35.08C131.468 34.76 130.85 34.6 130.103 34.6ZM154.176 42.888C154.091 42.5253 153.963 41.992 153.792 41.288C153.643 40.5627 153.472 39.7947 153.28 38.984C153.088 38.152 152.907 37.3947 152.736 36.712C152.566 36.008 152.448 35.496 152.384 35.176H152.256C152.192 35.496 152.075 36.008 151.904 36.712C151.755 37.3947 151.584 38.152 151.392 38.984C151.2 39.7947 151.019 40.5627 150.848 41.288C150.678 42.0133 150.55 42.568 150.464 42.952L149.056 49H143.936L138.976 31.528H143.712L145.728 39.272C145.878 39.8053 146.006 40.4453 146.112 41.192C146.24 41.9387 146.358 42.664 146.464 43.368C146.571 44.0507 146.646 44.5947 146.688 45H146.816C146.838 44.7013 146.88 44.3067 146.944 43.816C147.008 43.304 147.083 42.7813 147.168 42.248C147.275 41.7147 147.36 41.2347 147.424 40.808C147.51 40.36 147.574 40.0613 147.616 39.912L149.76 31.528H155.008L157.056 39.912C157.142 40.2107 157.238 40.6907 157.344 41.352C157.472 42.0133 157.579 42.6853 157.664 43.368C157.771 44.0507 157.824 44.5947 157.824 45H157.952C157.995 44.6373 158.07 44.1147 158.176 43.432C158.283 42.728 158.4 41.992 158.528 41.224C158.678 40.456 158.827 39.8053 158.976 39.272L161.056 31.528H165.728L160.704 49H155.52L154.176 42.888Z" fill="#CAF0F8"/>
<g filter="url(#filter1_d_0_1)">
<rect x="4" width="261.497" height="79" rx="25" fill="#0077B6"/>
</g>
<path d="M62.536 26.152C64.6053 26.152 66.312 26.408 67.656 26.92C69 27.4107 70.0027 28.168 70.664 29.192C71.3253 30.1947 71.656 31.464 71.656 33C71.656 34.0453 71.4533 34.9627 71.048 35.752C70.664 36.52 70.1413 37.1813 69.48 37.736C68.84 38.2693 68.1467 38.7067 67.4 39.048L74.12 49H68.744L63.304 40.232H60.712V49H55.88V26.152H62.536ZM62.184 30.12H60.712V36.296H62.28C63.3467 36.296 64.2107 36.1787 64.872 35.944C65.5333 35.7093 66.0133 35.3573 66.312 34.888C66.6107 34.3973 66.76 33.8107 66.76 33.128C66.76 32.4027 66.5893 31.8267 66.248 31.4C65.928 30.952 65.4267 30.632 64.744 30.44C64.0827 30.2267 63.2293 30.12 62.184 30.12ZM83.821 31.208C85.4423 31.208 86.829 31.5173 87.981 32.136C89.1543 32.7547 90.061 33.6507 90.701 34.824C91.341 35.9973 91.661 37.4373 91.661 39.144V41.448H80.397C80.4397 42.792 80.8343 43.848 81.581 44.616C82.349 45.384 83.405 45.768 84.749 45.768C85.8797 45.768 86.9037 45.6613 87.821 45.448C88.7383 45.2133 89.6877 44.8613 90.669 44.392V48.072C89.8157 48.4987 88.909 48.808 87.949 49C87.0103 49.2133 85.869 49.32 84.525 49.32C82.7757 49.32 81.229 49 79.885 48.36C78.541 47.6987 77.485 46.7067 76.717 45.384C75.949 44.0613 75.565 42.3973 75.565 40.392C75.565 38.344 75.9063 36.648 76.589 35.304C77.293 33.9387 78.2637 32.9147 79.501 32.232C80.7383 31.5493 82.1783 31.208 83.821 31.208ZM83.853 34.6C82.9357 34.6 82.1677 34.8987 81.549 35.496C80.9517 36.0933 80.5997 37.0213 80.493 38.28H87.181C87.181 37.576 87.053 36.9467 86.797 36.392C86.5623 35.8373 86.1997 35.4 85.709 35.08C85.2183 34.76 84.5997 34.6 83.853 34.6ZM99.0623 49L92.4062 31.528H97.3983L100.758 41.48C100.886 41.864 100.993 42.2693 101.078 42.696C101.185 43.1227 101.26 43.5387 101.302 43.944C101.366 44.3493 101.409 44.7227 101.43 45.064H101.558C101.58 44.7013 101.622 44.3173 101.686 43.912C101.75 43.5067 101.825 43.1013 101.91 42.696C102.017 42.2693 102.134 41.864 102.262 41.48L105.622 31.528H110.614L103.958 49H99.0623ZM117.889 31.528V49H113.121V31.528H117.889ZM115.521 24.68C116.225 24.68 116.833 24.8507 117.345 25.192C117.857 25.512 118.113 26.12 118.113 27.016C118.113 27.8907 117.857 28.4987 117.345 28.84C116.833 29.1813 116.225 29.352 115.521 29.352C114.796 29.352 114.177 29.1813 113.665 28.84C113.174 28.4987 112.929 27.8907 112.929 27.016C112.929 26.12 113.174 25.512 113.665 25.192C114.177 24.8507 114.796 24.68 115.521 24.68ZM130.071 31.208C131.692 31.208 133.079 31.5173 134.231 32.136C135.404 32.7547 136.311 33.6507 136.951 34.824C137.591 35.9973 137.911 37.4373 137.911 39.144V41.448H126.647C126.69 42.792 127.084 43.848 127.831 44.616C128.599 45.384 129.655 45.768 130.999 45.768C132.13 45.768 133.154 45.6613 134.071 45.448C134.988 45.2133 135.938 44.8613 136.919 44.392V48.072C136.066 48.4987 135.159 48.808 134.199 49C133.26 49.2133 132.119 49.32 130.775 49.32C129.026 49.32 127.479 49 126.135 48.36C124.791 47.6987 123.735 46.7067 122.967 45.384C122.199 44.0613 121.815 42.3973 121.815 40.392C121.815 38.344 122.156 36.648 122.839 35.304C123.543 33.9387 124.514 32.9147 125.751 32.232C126.988 31.5493 128.428 31.208 130.071 31.208ZM130.103 34.6C129.186 34.6 128.418 34.8987 127.799 35.496C127.202 36.0933 126.85 37.0213 126.743 38.28H133.431C133.431 37.576 133.303 36.9467 133.047 36.392C132.812 35.8373 132.45 35.4 131.959 35.08C131.468 34.76 130.85 34.6 130.103 34.6ZM154.176 42.888C154.091 42.5253 153.963 41.992 153.792 41.288C153.643 40.5627 153.472 39.7947 153.28 38.984C153.088 38.152 152.907 37.3947 152.736 36.712C152.566 36.008 152.448 35.496 152.384 35.176H152.256C152.192 35.496 152.075 36.008 151.904 36.712C151.755 37.3947 151.584 38.152 151.392 38.984C151.2 39.7947 151.019 40.5627 150.848 41.288C150.678 42.0133 150.55 42.568 150.464 42.952L149.056 49H143.936L138.976 31.528H143.712L145.728 39.272C145.878 39.8053 146.006 40.4453 146.112 41.192C146.24 41.9387 146.358 42.664 146.464 43.368C146.571 44.0507 146.646 44.5947 146.688 45H146.816C146.838 44.7013 146.88 44.3067 146.944 43.816C147.008 43.304 147.083 42.7813 147.168 42.248C147.275 41.7147 147.36 41.2347 147.424 40.808C147.51 40.36 147.574 40.0613 147.616 39.912L149.76 31.528H155.008L157.056 39.912C157.142 40.2107 157.238 40.6907 157.344 41.352C157.472 42.0133 157.579 42.6853 157.664 43.368C157.771 44.0507 157.824 44.5947 157.824 45H157.952C157.995 44.6373 158.07 44.1147 158.176 43.432C158.283 42.728 158.4 41.992 158.528 41.224C158.678 40.456 158.827 39.8053 158.976 39.272L161.056 31.528H165.728L160.704 49H155.52L154.176 42.888Z" fill="#CAF0F8"/>
<g clip-path="url(#clip0_0_1)">
<path d="M189.029 29.324H182.729V30.4562H189.029V29.324Z" fill="#FFDA48" stroke="#FFDA48"/>
<path d="M193.989 33.098H182.729V34.2302H193.989V33.098Z" fill="#FFDA48" stroke="#FFDA48"/>
<path d="M189.3 38H183V39.1322H189.3V38Z" fill="#FFDA48" stroke="#FFDA48"/>
<path d="M194.26 41.774H183V42.9062H194.26V41.774Z" fill="#FFDA48" stroke="#FFDA48"/>
<path d="M189.3 47H183V48.1322H189.3V47Z" fill="#FFDA48" stroke="#FFDA48"/>
<path d="M194.26 50.774H183V51.9062H194.26V50.774Z" fill="#FFDA48" stroke="#FFDA48"/>
<path d="M197.417 30.5265H196.131V33.6641C196.132 33.7606 196.161 33.8553 196.214 33.9394C196.268 34.0236 196.345 34.0943 196.438 34.1451C196.531 34.1965 196.638 34.2256 196.747 34.2295C196.857 34.2334 196.966 34.212 197.064 34.1673L205.535 30.3933L204.956 29.3832L197.396 32.7428L197.417 30.5265Z" fill="#FFDA48" stroke="#FFDA48"/>
<path d="M197.417 41.9892V39.7692H196.131V42.9068C196.132 43.0032 196.161 43.098 196.214 43.1821C196.268 43.2663 196.345 43.337 196.438 43.3878C196.531 43.4392 196.638 43.4683 196.747 43.4722C196.857 43.4761 196.966 43.4546 197.064 43.41L205.535 39.636L204.956 38.6259L197.417 41.9892Z" fill="#FFDA48" stroke="#FFDA48"/>
<path d="M197.417 51.2354V49.0154H196.131V52.153C196.132 52.2495 196.161 52.3442 196.214 52.4283C196.268 52.5125 196.345 52.5832 196.438 52.634C196.531 52.6854 196.638 52.7145 196.747 52.7184C196.857 52.7223 196.966 52.7009 197.064 52.6562L205.535 48.8822L204.956 47.8721L197.417 51.2354Z" fill="#FFDA48" stroke="#FFDA48"/>
<path d="M208.068 21.2876H179.903C179.733 21.2876 179.57 21.3467 179.45 21.4521C179.329 21.5575 179.261 21.7005 179.26 21.85V55.15C179.26 55.3001 179.328 55.4441 179.448 55.5503C179.569 55.6565 179.732 55.7161 179.903 55.7161H208.068C208.152 55.7166 208.236 55.7023 208.314 55.674C208.393 55.6457 208.464 55.6041 208.523 55.5514C208.583 55.4987 208.631 55.4361 208.663 55.3672C208.695 55.2983 208.711 55.2245 208.71 55.15V21.85C208.71 21.7758 208.694 21.7024 208.661 21.6339C208.629 21.5655 208.582 21.5033 208.522 21.451C208.462 21.3987 208.391 21.3574 208.313 21.3294C208.235 21.3013 208.152 21.2871 208.068 21.2876ZM187.068 22.4198H200.928V25.9755H187.068V22.4198ZM207.425 54.5802H180.545V22.4198H185.778V26.5416C185.78 26.6914 185.848 26.8349 185.968 26.9408C186.088 27.0468 186.251 27.1067 186.421 27.1077H201.541C201.625 27.1077 201.709 27.0931 201.787 27.0646C201.865 27.0362 201.936 26.9945 201.995 26.9419C202.055 26.8893 202.102 26.8269 202.135 26.7582C202.167 26.6896 202.184 26.616 202.184 26.5416V22.4198H207.425V54.5802ZM218.74 46.3773V46.1072H216.22V27.0707C216.221 27.0011 216.207 26.9319 216.178 26.8672L214.023 21.776C213.979 21.6701 213.9 21.5783 213.796 21.5123C213.692 21.4464 213.568 21.4094 213.44 21.406C213.313 21.4041 213.189 21.4346 213.081 21.4937C212.974 21.5528 212.888 21.638 212.835 21.739L210.227 26.8339C210.188 26.9082 210.168 26.989 210.168 27.0707V55.0242C210.167 55.0987 210.183 55.1725 210.216 55.2414C210.248 55.3103 210.295 55.3729 210.355 55.4256C210.415 55.4783 210.486 55.5199 210.564 55.5482C210.642 55.5765 210.726 55.5908 210.81 55.5903H215.594C215.762 55.5865 215.921 55.5251 216.038 55.4194C216.155 55.3136 216.22 55.1718 216.22 55.0242V53.9142H218.081C218.168 53.9168 218.256 53.9035 218.337 53.8749C218.419 53.8464 218.493 53.8034 218.555 53.7485C218.617 53.6937 218.665 53.6282 218.697 53.5561C218.729 53.484 218.744 53.4069 218.74 53.3296V46.3773ZM213.368 23.4558L214.666 26.5046H211.81L213.368 23.4558ZM214.96 54.4581H211.457V51.82H214.96V54.4581ZM214.96 50.6841H211.457V27.6368H214.96V50.6841ZM216.22 52.7635V47.2394H217.438V52.7635H216.22Z" fill="#FFDA48" stroke="#FFDA48"/>
</g>
<defs>
<filter id="filter0_d_0_1" x="0" y="0" width="269.497" height="87" filterUnits="userSpaceOnUse" color-interpolation-filters="sRGB">
<feFlood flood-opacity="0" result="BackgroundImageFix"/>
<feColorMatrix in="SourceAlpha" type="matrix" values="0 0 0 0 0 0 0 0 0 0 0 0 0 0 0 0 0 0 127 0" result="hardAlpha"/>
<feOffset dy="4"/>
<feGaussianBlur stdDeviation="2"/>
<feComposite in2="hardAlpha" operator="out"/>
<feColorMatrix type="matrix" values="0 0 0 0 0 0 0 0 0 0 0 0 0 0 0 0 0 0 0.25 0"/>
<feBlend mode="normal" in2="BackgroundImageFix" result="effect1_dropShadow_0_1"/>
<feBlend mode="normal" in="SourceGraphic" in2="effect1_dropShadow_0_1" result="shape"/>
</filter>
<filter id="filter1_d_0_1" x="0" y="0" width="269.497" height="87" filterUnits="userSpaceOnUse" color-interpolation-filters="sRGB">
<feFlood flood-opacity="0" result="BackgroundImageFix"/>
<feColorMatrix in="SourceAlpha" type="matrix" values="0 0 0 0 0 0 0 0 0 0 0 0 0 0 0 0 0 0 127 0" result="hardAlpha"/>
<feOffset dy="4"/>
<feGaussianBlur stdDeviation="2"/>
<feComposite in2="hardAlpha" operator="out"/>
<feColorMatrix type="matrix" values="0 0 0 0 0 0 0 0 0 0 0 0 0 0 0 0 0 0 0.25 0"/>
<feBlend mode="normal" in2="BackgroundImageFix" result="effect1_dropShadow_0_1"/>
<feBlend mode="normal" in="SourceGraphic" in2="effect1_dropShadow_0_1" result="shape"/>
</filter>
<clipPath id="clip0_0_1">
<rect width="42" height="37" fill="white" transform="translate(178 20)"/>
</clipPath>
</defs>
</svg>
