<svg width="166" height="58" viewBox="0 0 166 58" fill="none" xmlns="http://www.w3.org/2000/svg">
<g filter="url(#filter0_d_192_2)">
<rect x="4" width="158" height="50" rx="25" fill="#0077B6"/>
</g>
<path d="M62.22 27.04C62.22 27.88 62.0133 28.6133 61.6 29.24C61.1867 29.8667 60.5867 30.3533 59.8 30.7C59.0267 31.0333 58.08 31.2 56.96 31.2C56.4667 31.2 55.98 31.1667 55.5 31.1C55.0333 31.0333 54.58 30.94 54.14 30.82C53.7133 30.6867 53.3067 30.5267 52.92 30.34V27.52C53.6 27.8133 54.3 28.0867 55.02 28.34C55.7533 28.58 56.48 28.7 57.2 28.7C57.6933 28.7 58.0867 28.6333 58.38 28.5C58.6867 28.3667 58.9067 28.1867 59.04 27.96C59.1867 27.7333 59.26 27.4733 59.26 27.18C59.26 26.82 59.1333 26.5133 58.88 26.26C58.64 26.0067 58.3133 25.7733 57.9 25.56C57.4867 25.3333 57.0133 25.0933 56.48 24.84C56.1467 24.68 55.7867 24.4933 55.4 24.28C55.0133 24.0533 54.64 23.78 54.28 23.46C53.9333 23.1267 53.6467 22.7267 53.42 22.26C53.1933 21.7933 53.08 21.2333 53.08 20.58C53.08 19.7267 53.2733 19 53.66 18.4C54.06 17.7867 54.62 17.32 55.34 17C56.0733 16.68 56.9333 16.52 57.92 16.52C58.6667 16.52 59.3733 16.6067 60.04 16.78C60.72 16.9533 61.4267 17.2 62.16 17.52L61.18 19.88C60.5267 19.6133 59.94 19.4067 59.42 19.26C58.9 19.1133 58.3667 19.04 57.82 19.04C57.4467 19.04 57.1267 19.1 56.86 19.22C56.5933 19.34 56.3867 19.5067 56.24 19.72C56.1067 19.9333 56.04 20.1867 56.04 20.48C56.04 20.8133 56.14 21.1 56.34 21.34C56.54 21.5667 56.84 21.7867 57.24 22C57.64 22.2133 58.14 22.4667 58.74 22.76C59.4733 23.1067 60.0933 23.4667 60.6 23.84C61.12 24.2133 61.52 24.6533 61.8 25.16C62.08 25.6667 62.22 26.2933 62.22 27.04ZM69.0556 19.86C70.5223 19.86 71.6423 20.18 72.4156 20.82C73.2023 21.4467 73.5956 22.4133 73.5956 23.72V31H71.5156L70.9356 29.52H70.8556C70.549 29.9067 70.229 30.2267 69.8956 30.48C69.5756 30.7333 69.2023 30.9133 68.7756 31.02C68.3623 31.14 67.849 31.2 67.2356 31.2C66.5956 31.2 66.0156 31.08 65.4956 30.84C64.989 30.5867 64.589 30.2067 64.2956 29.7C64.0023 29.18 63.8556 28.5267 63.8556 27.74C63.8556 26.58 64.2623 25.7267 65.0756 25.18C65.889 24.62 67.109 24.3133 68.7356 24.26L70.6356 24.2V23.72C70.6356 23.1467 70.4823 22.7267 70.1756 22.46C69.8823 22.1933 69.469 22.06 68.9356 22.06C68.4023 22.06 67.8823 22.14 67.3756 22.3C66.869 22.4467 66.3623 22.6333 65.8556 22.86L64.8756 20.84C65.4623 20.5333 66.109 20.2933 66.8156 20.12C67.5356 19.9467 68.2823 19.86 69.0556 19.86ZM69.4756 25.98C68.5156 26.0067 67.849 26.18 67.4756 26.5C67.1023 26.82 66.9156 27.24 66.9156 27.76C66.9156 28.2133 67.049 28.54 67.3156 28.74C67.5823 28.9267 67.929 29.02 68.3556 29.02C68.9956 29.02 69.5356 28.8333 69.9756 28.46C70.4156 28.0733 70.6356 27.5333 70.6356 26.84V25.94L69.4756 25.98ZM79.2459 31L75.0859 20.08H78.2059L80.3059 26.3C80.3859 26.54 80.4526 26.7933 80.5059 27.06C80.5726 27.3267 80.6193 27.5867 80.6459 27.84C80.6859 28.0933 80.7126 28.3267 80.7259 28.54H80.8059C80.8193 28.3133 80.8459 28.0733 80.8859 27.82C80.9259 27.5667 80.9726 27.3133 81.0259 27.06C81.0926 26.7933 81.1659 26.54 81.2459 26.3L83.3459 20.08H86.4659L82.3059 31H79.2459ZM92.5327 19.88C93.546 19.88 94.4127 20.0733 95.1327 20.46C95.866 20.8467 96.4327 21.4067 96.8327 22.14C97.2327 22.8733 97.4327 23.7733 97.4327 24.84V26.28H90.3927C90.4193 27.12 90.666 27.78 91.1327 28.26C91.6127 28.74 92.2727 28.98 93.1127 28.98C93.8193 28.98 94.4593 28.9133 95.0327 28.78C95.606 28.6333 96.1993 28.4133 96.8127 28.12V30.42C96.2793 30.6867 95.7127 30.88 95.1127 31C94.526 31.1333 93.8127 31.2 92.9727 31.2C91.8793 31.2 90.9127 31 90.0727 30.6C89.2327 30.1867 88.5727 29.5667 88.0927 28.74C87.6127 27.9133 87.3727 26.8733 87.3727 25.62C87.3727 24.34 87.586 23.28 88.0127 22.44C88.4527 21.5867 89.0593 20.9467 89.8327 20.52C90.606 20.0933 91.506 19.88 92.5327 19.88ZM92.5527 22C91.9793 22 91.4993 22.1867 91.1127 22.56C90.7393 22.9333 90.5193 23.5133 90.4527 24.3H94.6327C94.6327 23.86 94.5527 23.4667 94.3927 23.12C94.246 22.7733 94.0193 22.5 93.7127 22.3C93.406 22.1 93.0193 22 92.5527 22Z" fill="#CAF0F8"/>
<path d="M126.71 22.29L120.71 16.29C120.618 16.2 120.509 16.1287 120.39 16.08C120.266 16.0296 120.134 16.0025 120 16H112C111.204 16 110.441 16.3161 109.879 16.8787C109.316 17.4413 109 18.2044 109 19V31C109 31.7956 109.316 32.5587 109.879 33.1213C110.441 33.6839 111.204 34 112 34H124C124.796 34 125.559 33.6839 126.121 33.1213C126.684 32.5587 127 31.7956 127 31V23C127.001 22.8684 126.976 22.7379 126.926 22.6161C126.876 22.4943 126.803 22.3834 126.71 22.29ZM115 18H119V20H115V18ZM121 32H115V29C115 28.7348 115.105 28.4804 115.293 28.2929C115.48 28.1054 115.735 28 116 28H120C120.265 28 120.52 28.1054 120.707 28.2929C120.895 28.4804 121 28.7348 121 29V32ZM125 31C125 31.2652 124.895 31.5196 124.707 31.7071C124.52 31.8946 124.265 32 124 32H123V29C123 28.2044 122.684 27.4413 122.121 26.8787C121.559 26.3161 120.796 26 120 26H116C115.204 26 114.441 26.3161 113.879 26.8787C113.316 27.4413 113 28.2044 113 29V32H112C111.735 32 111.48 31.8946 111.293 31.7071C111.105 31.5196 111 31.2652 111 31V19C111 18.7348 111.105 18.4804 111.293 18.2929C111.48 18.1054 111.735 18 112 18H113V21C113 21.2652 113.105 21.5196 113.293 21.7071C113.48 21.8946 113.735 22 114 22H120C120.265 22 120.52 21.8946 120.707 21.7071C120.895 21.5196 121 21.2652 121 21V19.41L125 23.41V31Z" fill="#FFDA48"/>
<defs>
<filter id="filter0_d_192_2" x="0" y="0" width="166" height="58" filterUnits="userSpaceOnUse" color-interpolation-filters="sRGB">
<feFlood flood-opacity="0" result="BackgroundImageFix"/>
<feColorMatrix in="SourceAlpha" type="matrix" values="0 0 0 0 0 0 0 0 0 0 0 0 0 0 0 0 0 0 127 0" result="hardAlpha"/>
<feOffset dy="4"/>
<feGaussianBlur stdDeviation="2"/>
<feComposite in2="hardAlpha" operator="out"/>
<feColorMatrix type="matrix" values="0 0 0 0 0 0 0 0 0 0 0 0 0 0 0 0 0 0 0.25 0"/>
<feBlend mode="normal" in2="BackgroundImageFix" result="effect1_dropShadow_192_2"/>
<feBlend mode="normal" in="SourceGraphic" in2="effect1_dropShadow_192_2" result="shape"/>
</filter>
</defs>
</svg>
